<?xml version="1.0" standalone="no"?><!DOCTYPE svg PUBLIC "-//W3C//DTD SVG 1.1//EN" "http://www.w3.org/Graphics/SVG/1.1/DTD/svg11.dtd"><svg class="icon" width="64px" height="64.00px" viewBox="0 0 1024 1024" version="1.1" xmlns="http://www.w3.org/2000/svg"><path d="M514.656503 389.000642c-92.491531 0-167.481456 74.989925-167.481456 167.481456s74.989925 167.481456 167.481456 167.481456 167.481456-74.989925 167.481456-167.481456S607.148034 389.000642 514.656503 389.000642zM514.656503 668.137083c-61.566194 0-112.936165-51.30141-112.936165-112.882953 0-61.565171 50.087768-111.652939 111.652939-111.652939 61.58052 0 111.653963 50.087768 111.653963 111.652939C625.028263 616.835673 576.237023 668.137083 514.656503 668.137083zM957.975261 548.767392c-0.326435-1.403976-0.161682-2.902096-0.597611-4.27742-0.164752-0.589424-0.547469-0.929162-0.73678-1.434675-0.301875-0.789992-0.218988-1.727341-0.629333-2.492774-81.204463-185.879478-256.152984-292.872281-442.637236-292.872281-186.466855 0-364.946806 106.799398-446.166619 292.695249-0.354064 0.778736-0.299829 1.595334-0.572028 2.481518-0.191358 0.543376-0.599657 0.846274-0.777713 1.362021-0.435928 1.403976-0.25992 2.879584-0.532119 4.294816-0.51677 2.508123-0.99363 4.962012-0.99363 7.480368 0 2.577708 0.476861 4.962012 0.99363 7.497765 0.272199 1.391696 0.096191 2.929726 0.532119 4.26821 0.177032 0.626263 0.586354 0.896416 0.777713 1.442862 0.272199 0.778736 0.217964 1.717108 0.572028 2.480494 81.219813 185.882548 257.957073 291.130613 444.423929 291.130613 186.482205 0 363.175463-105.030102 444.38095-290.914696 0.410346-0.786922 0.327458-1.633197 0.629333-2.5071 0.189312-0.490164 0.572028-0.845251 0.73678-1.376347 0.435928-1.349741 0.271176-2.862187 0.597611-4.27742 0.491187-2.511193 0.953721-4.948709 0.953721-7.513114C958.927959 553.715077 958.466448 551.304168 957.975261 548.767392zM511.630586 806.997688c-158.14481 0-313.810149-83.358523-390.286937-250.965845C197.099007 389.028271 354.832448 303.515688 513.3743 303.515688c158.485571 0 312.720328 85.606727 388.503315 252.719792C826.149886 723.20119 670.171416 806.997688 511.630586 806.997688z" fill="#bfbfbf" /></svg>