<?xml version="1.0" standalone="no"?><!DOCTYPE svg PUBLIC "-//W3C//DTD SVG 1.1//EN" "http://www.w3.org/Graphics/SVG/1.1/DTD/svg11.dtd"><svg class="icon" width="64px" height="64.00px" viewBox="0 0 1024 1024" version="1.1" xmlns="http://www.w3.org/2000/svg"><path d="M896 512 512 512 512 128c0-17.664-14.336-32-32-32S448 110.336 448 128l0 384L64 512C46.336 512 32 526.336 32 544S46.336 576 64 576l384 0 0 384c0 17.664 14.336 32 32 32S512 977.664 512 960L512 576l384 0c17.664 0 32-14.336 32-32S913.664 512 896 512z" fill="#8a8a8a" /></svg>